# xmcd
#
# Track frame offsets: 
#        150
#        17592
#        33252
#        53894
#        69502
#        85224
#        99609
#        118084
#        135334
#        148847
#        169027
#        183354
#
# Disc length: 2729 seconds
#
# Revision: 2
# Processed by: cddbd v1.5.2PL0 Copyright (c) Steve Scherf et al.
# Submitted via: ExactAudioCopy v1.1
#
DISCID=9e0aa70c
DTITLE=Melanie C - Beautiful Intentions [REDGCD1]
DYEAR=2005
DGENRE=Rock
TTITLE0=Beautiful Intentions
TTITLE1=Next Best Superstar
TTITLE2=Better Alone
TTITLE3=Last Night on Earth
TTITLE4=You Will See
TTITLE5=Never Say Never
TTITLE6=Good Girl
TTITLE7=Don't Need This
TTITLE8=Little Piece of Me
TTITLE9=Here and Now
TTITLE10=Take Your Pleasure
TTITLE11=You'll Get Yours
EXTD=Copyright (c) 2005 Red Girl Records Ltd
EXTT0=
EXTT1=
EXTT2=
EXTT3=
EXTT4=
EXTT5=
EXTT6=
EXTT7=
EXTT8=
EXTT9=
EXTT10=
EXTT11=
PLAYORDER=
